<?xml version="1.0" standalone="no"?>
<!DOCTYPE svg PUBLIC "-//W3C//DTD SVG 1.1//EN" "http://www.w3.org/Graphics/SVG/1.1/DTD/svg11.dtd">
<!-- Created with WaveDrom -->
<svg xmlns="http://www.w3.org/2000/svg" xmlns:xlink="http://www.w3.org/1999/xlink" id="svgcontent_0" height="100%" width="100%" viewBox="0 0 690.461799621582 406.6666679382324" overflow="hidden" class="WaveDrom"><style type="text/css">text{font-size:11pt;font-style:normal;font-variant:normal;font-weight:normal;font-stretch:normal;text-align:center;fill-opacity:1;font-family:Helvetica}.h1{font-size:33pt;font-weight:bold}.h2{font-size:27pt;font-weight:bold}.h3{font-size:20pt;font-weight:bold}.h4{font-size:14pt;font-weight:bold}.h5{font-size:11pt;font-weight:bold}.h6{font-size:8pt;font-weight:bold}.background{stroke:none;fill:white}.arrow_default{fill:#0041c4}.arrow_compact{fill:#0041c4;stroke-linecap:round}.tee_path{stroke:#0041c4;stroke-width:2}.arc_arrow{marker-end:url(#arrowhead);stroke:#0041c4;stroke-width:1;fill:none}.arc_arrow_twosided{marker-start:url(#arrowtail)}.arc_bracket{marker-end:url(#tee);marker-start:url(#tee);fill:none;stroke:#0041c4;stroke-width:1}.arc_error{fill:none;stroke:#F00;stroke-width:1}.arc_default{fill:none;stroke:#0041c4;stroke-width:1}.arc_label_default{font-size:11px;dominant-baseline:middle;text-anchor:middle;}.arc_label_bg_white{fill:#FFF}.arc_label_bg_transparent{fill-opacity:0}.pw_default{fill:none;stroke:#000;stroke-width:1px;}.group_path{stroke:#0041c4;stroke-width:1;fill:none}.gmarks{stroke:#888;stroke-width:0.5;stroke-dasharray:1,3}.muted{fill:#aaa}.warning{fill:#f6b900}.error{fill:#f60000}.info{fill:#0041c4}.success{fill:#00ab00}.s_wd_default_1{fill:none;stroke:#000;stroke-width:1;stroke-linecap:round;stroke-linejoin:miter;stroke-miterlimit:4;stroke-opacity:1;stroke-dasharray:none}.s_wd_default_2{fill:none;stroke:#000;stroke-width:0.5;stroke-linecap:round;stroke-linejoin:miter;stroke-miterlimit:4;stroke-opacity:1;stroke-dasharray:none}.s_wd_default_3{color:#000;fill:none;stroke:#000;stroke-width:1;stroke-linecap:round;stroke-linejoin:miter;stroke-miterlimit:4;stroke-opacity:1;stroke-dasharray:1, 3;stroke-dashoffset:0;marker:none;visibility:visible;display:inline;overflow:visible}.s_wd_default_4{color:#000;fill:none;stroke:#000;stroke-width:1;stroke-linecap:round;stroke-linejoin:miter;stroke-miterlimit:4;stroke-opacity:1;stroke-dasharray:none;stroke-dashoffset:0;marker:none;visibility:visible;display:inline;overflow:visible}.s_wd_default_5{fill:#fff;stroke:none}.s_wd_default_6{fill:#000;fill-opacity:1;stroke:none}.s_wd_default_7{color:#000;fill:#fff;fill-opacity:1;fill-rule:nonzero;stroke:none;stroke-width:1px;marker:none;visibility:visible;display:inline;overflow:visible}.s_wd_default_8{color:#000;fill:#ffffb4;fill-opacity:1;fill-rule:nonzero;stroke:none;stroke-width:1px;marker:none;visibility:visible;display:inline;overflow:visible}.s_wd_default_9{color:#000;fill:#ffe0b9;fill-opacity:1;fill-rule:nonzero;stroke:none;stroke-width:1px;marker:none;visibility:visible;display:inline;overflow:visible}.s_wd_default_10{color:#000;fill:#b9e0ff;fill-opacity:1;fill-rule:nonzero;stroke:none;stroke-width:1px;marker:none;visibility:visible;display:inline;overflow:visible}.s_wd_default_11{color:#000;fill:#ccfdfe;fill-opacity:1;fill-rule:nonzero;stroke:none;stroke-width:1px;marker:none;visibility:visible;display:inline;overflow:visible}.s_wd_default_12{color:#000;fill:#cdfdc5;fill-opacity:1;fill-rule:nonzero;stroke:none;stroke-width:1px;marker:none;visibility:visible;display:inline;overflow:visible}.s_wd_default_13{color:#000;fill:#f0c1fb;fill-opacity:1;fill-rule:nonzero;stroke:none;stroke-width:1px;marker:none;visibility:visible;display:inline;overflow:visible}.s_wd_default_14{color:#000;fill:#f5c2c0;fill-opacity:1;fill-rule:nonzero;stroke:none;stroke-width:1px;marker:none;visibility:visible;display:inline;overflow:visible}.s_wd_default_15{fill:#0041c4;fill-opacity:1;stroke:none}.s_wd_default_16{fill:none;stroke:#0041c4;stroke-width:1;stroke-linecap:round;stroke-linejoin:miter;stroke-miterlimit:4;stroke-opacity:1;stroke-dasharray:none}.blueVoltageLine{stroke:#0000ff;stroke-width:0.3px;stroke-dasharray:2}.vAnnoStyle{font-size:8px;text-align:center;opacity:0.7;text-anchor:start}</style><defs><g id="wd_default_000"><path d="m0,20 20,0" class="s_wd_default_1"/></g><g id="wd_default_0m1"><path d="M0,20 3,20 9,0 20,0" class="s_wd_default_1"/></g><g id="wd_default_111"><path d="M0,0 20,0" class="s_wd_default_1"/></g><g id="wd_default_1m0"><path d="m0,0 3,0 6,20 11,0" class="s_wd_default_1"/></g><g id="wd_default_1mu"><path d="M0,0 5,0" class="s_wd_default_1"/><path d="M8,0 18,0" class="s_wd_default_3"/></g><g id="wd_default_uuu"><path d="M0,0 20,0" class="s_wd_default_3"/></g><g id="wd_default_vvv-2"><path d="M20,20 0,20 0,0 20,0" class="s_wd_default_7"/><path d="m0,20 20,0" class="s_wd_default_1"/><path d="M0,0 20,0" class="s_wd_default_1"/></g><g id="wd_default_0mv-4"><path d="M9,0 20,0 20,20 3,20 z" class="s_wd_default_9"/><path d="M3,20 9,0 20,0" class="s_wd_default_1"/><path d="m0,20 20,0" class="s_wd_default_1"/></g><g id="wd_default_vvv-4"><path d="M20,20 0,20 0,0 20,0" class="s_wd_default_9"/><path d="m0,20 20,0" class="s_wd_default_1"/><path d="M0,0 20,0" class="s_wd_default_1"/></g><g id="wd_default_vm1-4"><path d="M0,0 0,20 3,20 9,0" class="s_wd_default_9"/><path d="M0,0 20,0" class="s_wd_default_1"/><path d="M0,20 3,20 9,0" class="s_wd_default_1"/></g><g id="wd_default_vmv-2-2"><path d="M9,0 20,0 20,20 9,20 6,10 z" class="s_wd_default_7"/><path d="M3,0 0,0 0,20 3,20 6,10 z" class="s_wd_default_7"/><path d="m0,0 3,0 6,20 11,0" class="s_wd_default_1"/><path d="M0,20 3,20 9,0 20,0" class="s_wd_default_1"/></g><marker id="arrowhead" class="arrow_default" markerHeight="7" markerWidth="10" markerUnits="strokeWidth" viewBox="0 -4 11 8" refX="15" refY="0" orient="auto"><path d="M0 -4 11 0 0 4z"/></marker><marker id="arrowtail" class="arrow_default" markerHeight="7" markerWidth="10" markerUnits="strokeWidth" viewBox="-11 -4 11 8" refX="-15" refY="0" orient="auto"><path d="M0 -4 -11 0 0 4z"/></marker><marker id="tee" class="arrow_default tee_path" markerHeight="6" markerWidth="1" markerUnits="strokeWidth" viewBox="0 0 1 6" refX="0" refY="3" orient="auto"><path d="M 0 0 L 0 6"/></marker><g id="wd_default_L10_zzz"><path d="m0,10 20,0" class="s_wd_default_1" style="stroke-dasharray:1,3"/></g><g id="wd_default_L12_000"><path d="m0,20 20,0" class="s_wd_default_1" style="stroke-dasharray:1,3"/></g><g id="wd_default_L12_0m1"><path d="M0,20 3,20 9,0 20,0" class="s_wd_default_1" style="stroke-dasharray:1,3"/></g><g id="wd_default_L12_111"><path d="M0,0 20,0" class="s_wd_default_1" style="stroke-dasharray:1,3"/></g><g id="wd_default_L12_1m0"><path d="m0,0 3,0 6,20 11,0" class="s_wd_default_1" style="stroke-dasharray:1,3"/></g><clipPath id="D0L0_FL_CP"><polygon points="-0.5,-2,519.5,-2,519.5,22,-0.5,22"/></clipPath><clipPath id="D0L1_FL_CP"><polygon points="-0.5,-2,519.5,-2,519.5,22,-0.5,22"/></clipPath><clipPath id="D0L2_FL_CP"><polygon points="-0.5,-2,519.5,-2,519.5,22,-0.5,22"/></clipPath><clipPath id="D0L3_FL_CP"><polygon points="-0.5,-2,519.5,-2,519.5,22,-0.5,22"/></clipPath><clipPath id="D0L4_FL_CP"><polygon points="-0.5,-2,519.5,-2,519.5,22,-0.5,22"/></clipPath><clipPath id="D0L5_FL_CP"><polygon points="-0.5,-2,519.5,-2,519.5,22,-0.5,22"/></clipPath><clipPath id="D0L6_FL_CP"><polygon points="-0.5,-2,519.5,-2,519.5,22,-0.5,22"/></clipPath><clipPath id="D0L7_FL_CP"><polygon points="-0.5,-2,519.5,-2,519.5,22,-0.5,22"/></clipPath><clipPath id="D0L8_FL_CP"><polygon points="-0.5,-2,519.5,-2,519.5,22,-0.5,22"/></clipPath><clipPath id="D0L9_FL_CP"><polygon points="-0.5,-2,519.5,-2,519.5,22,-0.5,22"/></clipPath><clipPath id="D0L10_FL_CP"><polygon points="-340.5,-2,179.5,-2,179.5,22,-340.5,22"/></clipPath><clipPath id="D0_L10_FB_CP"><polygon points="-340.5,-2,22,-2,22,22,-340.5,22"/></clipPath><clipPath id="D0L11_FL_CP"><polygon points="-0.5,-2,519.5,-2,519.5,22,-0.5,22"/></clipPath><clipPath id="D0L12_FL_CP"><polygon points="-16.5,-2,503.5,-2,503.5,22,-16.5,22"/></clipPath><clipPath id="D0_L12_FB_CP"><polygon points="-16.5,-2,22,-2,22,22,-16.5,22"/></clipPath><clipPath id="D0L13_FL_CP"><polygon points="-0.5,-2,519.5,-2,519.5,22,-0.5,22"/></clipPath><clipPath id="D0L14_FL_CP"><polygon points="-0.5,-2,519.5,-2,519.5,22,-0.5,22"/></clipPath><clipPath id="D0L15_FL_CP"><polygon points="-0.5,-2,519.5,-2,519.5,22,-0.5,22"/></clipPath><clipPath id="D0L16_FL_CP"><polygon points="-0.5,-2,519.5,-2,519.5,22,-0.5,22"/></clipPath><clipPath id="D0L17_FL_CP"><polygon points="-0.5,-2,519.5,-2,519.5,22,-0.5,22"/></clipPath><clipPath id="D0L18_FL_CP"><polygon points="-0.5,-2,519.5,-2,519.5,22,-0.5,22"/></clipPath><clipPath id="D0L19_FL_CP"><polygon points="-0.5,-2,519.5,-2,519.5,22,-0.5,22"/></clipPath><clipPath id="D0L20_FL_CP"><polygon points="-0.5,-2,519.5,-2,519.5,22,-0.5,22"/></clipPath><clipPath id="D0L21_FL_CP"><polygon points="-0.5,-2,519.5,-2,519.5,22,-0.5,22"/></clipPath><clipPath id="D0_PWTL_CP"><polygon points="-0.5,-2,520,-2,520,360,-0.5,360"/></clipPath></defs><g id="waves_0"><rect width="690.461799621582" height="406.6666679382324" class="background"/><g transform="translate(140.5,47.16666793823242)" id="lanes_0"><g id="gmarks_0"><g class="gmarks"><line id="gmark_0_0" x1="0" y1="0" x2="0" y2="360"/><line id="gmark_1_0" x1="40" y1="0" x2="40" y2="360"/><line id="gmark_2_0" x1="80" y1="0" x2="80" y2="360"/><line id="gmark_3_0" x1="120" y1="0" x2="120" y2="360"/><line id="gmark_4_0" x1="160" y1="0" x2="160" y2="360"/><line id="gmark_5_0" x1="200" y1="0" x2="200" y2="360"/><line id="gmark_6_0" x1="240" y1="0" x2="240" y2="360"/><line id="gmark_7_0" x1="280" y1="0" x2="280" y2="360"/><line id="gmark_8_0" x1="320" y1="0" x2="320" y2="360"/><line id="gmark_9_0" x1="360" y1="0" x2="360" y2="360"/><line id="gmark_10_0" x1="400" y1="0" x2="400" y2="360"/><line id="gmark_11_0" x1="440" y1="0" x2="440" y2="360"/><line id="gmark_12_0" x1="480" y1="0" x2="480" y2="360"/><line id="gmark_13_0" x1="520" y1="0" x2="520" y2="360"/></g><g transform="translate(250,-13.666667938232422)"><text fill="#000" text-anchor="middle" xml:space="preserve"><tspan>Arbitrary Text Labels using the </tspan><tspan font-style="italic">tl</tspan><tspan> Feature</tspan></text></g></g><g transform="translate(0,5)" id="wavelane_0_0"><text x="-10" y="15" class="info lane_label" text-anchor="end" xml:space="preserve"><tspan/></text><g id="wavelane_draw_0_0" clip-path="url(#D0L0_FL_CP)"/></g><g transform="translate(0,35)" id="wavelane_1_0"><text x="-10" y="15" class="info lane_label" text-anchor="end" xml:space="preserve"><tspan/></text><g id="wavelane_draw_1_0" clip-path="url(#D0L1_FL_CP)"/></g><g transform="translate(0,65)" id="wavelane_2_0"><text x="-10" y="15" class="info lane_label" text-anchor="end" xml:space="preserve"><tspan>MCount</tspan></text><g id="wavelane_draw_2_0" clip-path="url(#D0L2_FL_CP)"><use xlink:href="#wd_default_vvv-2"/><use transform="translate(20)" xlink:href="#wd_default_vvv-2"/><use transform="translate(40)" xlink:href="#wd_default_vmv-2-2"/><use transform="translate(60)" xlink:href="#wd_default_vvv-2"/><use transform="translate(80)" xlink:href="#wd_default_vmv-2-2"/><use transform="translate(100)" xlink:href="#wd_default_vvv-2"/><use transform="translate(120)" xlink:href="#wd_default_vmv-2-2"/><use transform="translate(140)" xlink:href="#wd_default_vvv-2"/><use transform="translate(160)" xlink:href="#wd_default_vmv-2-2"/><use transform="translate(180)" xlink:href="#wd_default_vvv-2"/><use transform="translate(200)" xlink:href="#wd_default_vmv-2-2"/><use transform="translate(220)" xlink:href="#wd_default_vvv-2"/><use transform="translate(240)" xlink:href="#wd_default_vmv-2-2"/><use transform="translate(260)" xlink:href="#wd_default_vvv-2"/><use transform="translate(280)" xlink:href="#wd_default_vmv-2-2"/><use transform="translate(300)" xlink:href="#wd_default_vvv-2"/><use transform="translate(320)" xlink:href="#wd_default_vmv-2-2"/><use transform="translate(340)" xlink:href="#wd_default_vvv-2"/><use transform="translate(360)" xlink:href="#wd_default_vmv-2-2"/><use transform="translate(380)" xlink:href="#wd_default_vvv-2"/><use transform="translate(400)" xlink:href="#wd_default_vmv-2-2"/><use transform="translate(420)" xlink:href="#wd_default_vvv-2"/><use transform="translate(440)" xlink:href="#wd_default_vmv-2-2"/><use transform="translate(460)" xlink:href="#wd_default_vvv-2"/><use transform="translate(480)" xlink:href="#wd_default_vmv-2-2"/><use transform="translate(500)" xlink:href="#wd_default_vvv-2"/><g transform="translate(16,15)"><text style="" text-anchor="middle" xml:space="preserve" class="data_label"><tspan>FE</tspan></text></g><g transform="translate(66,15)"><text style="" text-anchor="middle" xml:space="preserve" class="data_label"><tspan>FF</tspan></text></g><g transform="translate(106,15)"><text style="" text-anchor="middle" xml:space="preserve" class="data_label"><tspan>00</tspan></text></g><g transform="translate(146,15)"><text style="" text-anchor="middle" xml:space="preserve" class="data_label"><tspan>01</tspan></text></g><g transform="translate(186,15)"><text style="" text-anchor="middle" xml:space="preserve" class="data_label"><tspan>02</tspan></text></g><g transform="translate(226,15)"><text style="" text-anchor="middle" xml:space="preserve" class="data_label"><tspan>03</tspan></text></g><g transform="translate(266,15)"><text style="" text-anchor="middle" xml:space="preserve" class="data_label"><tspan>04</tspan></text></g><g transform="translate(306,15)"><text style="" text-anchor="middle" xml:space="preserve" class="data_label"><tspan>05</tspan></text></g><g transform="translate(346,15)"><text style="" text-anchor="middle" xml:space="preserve" class="data_label"><tspan>06</tspan></text></g><g transform="translate(386,15)"><text style="" text-anchor="middle" xml:space="preserve" class="data_label"><tspan>07</tspan></text></g><g transform="translate(426,15)"><text style="" text-anchor="middle" xml:space="preserve" class="data_label"><tspan>08</tspan></text></g><g transform="translate(466,15)"><text style="" text-anchor="middle" xml:space="preserve" class="data_label"><tspan>09</tspan></text></g><g transform="translate(506,15)"><text style="" text-anchor="middle" xml:space="preserve" class="data_label"><tspan>0A</tspan></text></g></g></g><g transform="translate(0,95)" id="wavelane_3_0"><text x="-10" y="15" class="info lane_label" text-anchor="end" xml:space="preserve"><tspan/></text><g id="wavelane_draw_3_0" clip-path="url(#D0L3_FL_CP)"/></g><g transform="translate(0,125)" id="wavelane_4_0"><text x="-10" y="15" class="info lane_label" text-anchor="end" xml:space="preserve"><tspan>UART Example</tspan></text><g id="wavelane_draw_4_0" clip-path="url(#D0L4_FL_CP)"><use xlink:href="#wd_default_111"/><use transform="translate(20)" xlink:href="#wd_default_111"/><use transform="translate(40)" xlink:href="#wd_default_1m0"/><use transform="translate(60)" xlink:href="#wd_default_000"/><use transform="translate(80)" xlink:href="#wd_default_0mv-4"/><use transform="translate(100)" xlink:href="#wd_default_vvv-4"/><use transform="translate(120)" xlink:href="#wd_default_vvv-4"/><use transform="translate(140)" xlink:href="#wd_default_vvv-4"/><use transform="translate(160)" xlink:href="#wd_default_vvv-4"/><use transform="translate(180)" xlink:href="#wd_default_vvv-4"/><use transform="translate(200)" xlink:href="#wd_default_vvv-4"/><use transform="translate(220)" xlink:href="#wd_default_vvv-4"/><use transform="translate(240)" xlink:href="#wd_default_vvv-4"/><use transform="translate(260)" xlink:href="#wd_default_vvv-4"/><use transform="translate(280)" xlink:href="#wd_default_vvv-4"/><use transform="translate(300)" xlink:href="#wd_default_vvv-4"/><use transform="translate(320)" xlink:href="#wd_default_vvv-4"/><use transform="translate(340)" xlink:href="#wd_default_vvv-4"/><use transform="translate(360)" xlink:href="#wd_default_vvv-4"/><use transform="translate(380)" xlink:href="#wd_default_vvv-4"/><use transform="translate(400)" xlink:href="#wd_default_vm1-4"/><use transform="translate(420)" xlink:href="#wd_default_111"/><use transform="translate(440)" xlink:href="#wd_default_1mu"/><use transform="translate(460)" xlink:href="#wd_default_uuu"/><g transform="translate(246,15)"><text style="" text-anchor="middle" xml:space="preserve" class="data_label"><tspan>data</tspan></text></g></g></g><g transform="translate(0,155)" id="wavelane_5_0"><text x="-10" y="15" class="info lane_label" text-anchor="end" xml:space="preserve"><tspan/></text><g id="wavelane_draw_5_0" clip-path="url(#D0L5_FL_CP)"/></g><g transform="translate(0,185)" id="wavelane_6_0"><text x="-10" y="15" class="info lane_label" text-anchor="end" xml:space="preserve"><tspan>CLK1</tspan></text><g id="wavelane_draw_6_0" clip-path="url(#D0L6_FL_CP)"><use xlink:href="#wd_default_000"/><use transform="translate(20)" xlink:href="#wd_default_000"/><use transform="translate(40)" xlink:href="#wd_default_0m1"/><use transform="translate(60)" xlink:href="#wd_default_111"/><use transform="translate(80)" xlink:href="#wd_default_1m0"/><use transform="translate(100)" xlink:href="#wd_default_000"/><use transform="translate(120)" xlink:href="#wd_default_0m1"/><use transform="translate(140)" xlink:href="#wd_default_111"/><use transform="translate(160)" xlink:href="#wd_default_1m0"/><use transform="translate(180)" xlink:href="#wd_default_000"/><use transform="translate(200)" xlink:href="#wd_default_0m1"/><use transform="translate(220)" xlink:href="#wd_default_111"/><use transform="translate(240)" xlink:href="#wd_default_1m0"/><use transform="translate(260)" xlink:href="#wd_default_000"/><use transform="translate(280)" xlink:href="#wd_default_0m1"/><use transform="translate(300)" xlink:href="#wd_default_111"/><use transform="translate(320)" xlink:href="#wd_default_1m0"/><use transform="translate(340)" xlink:href="#wd_default_000"/><use transform="translate(360)" xlink:href="#wd_default_0m1"/><use transform="translate(380)" xlink:href="#wd_default_111"/><use transform="translate(400)" xlink:href="#wd_default_1m0"/><use transform="translate(420)" xlink:href="#wd_default_000"/><use transform="translate(440)" xlink:href="#wd_default_0m1"/><use transform="translate(460)" xlink:href="#wd_default_111"/><use transform="translate(480)" xlink:href="#wd_default_1m0"/><use transform="translate(500)" xlink:href="#wd_default_000"/><use transform="translate(520)" xlink:href="#wd_default_0m1"/><use transform="translate(540)" xlink:href="#wd_default_111"/><use transform="translate(560)" xlink:href="#wd_default_1m0"/><use transform="translate(580)" xlink:href="#wd_default_000"/><use transform="translate(600)" xlink:href="#wd_default_0m1"/><use transform="translate(620)" xlink:href="#wd_default_111"/></g></g><g transform="translate(0,215)" id="wavelane_7_0"><text x="-10" y="15" class="info lane_label" text-anchor="end" xml:space="preserve"><tspan/></text><g id="wavelane_draw_7_0" clip-path="url(#D0L7_FL_CP)"/></g><g transform="translate(0,245)" id="wavelane_8_0"><text x="-10" y="15" class="info lane_label" text-anchor="end" xml:space="preserve"><tspan>CLK2</tspan></text><g id="wavelane_draw_8_0" clip-path="url(#D0L8_FL_CP)"><use xlink:href="#wd_default_000"/><use transform="translate(20)" xlink:href="#wd_default_000"/><use transform="translate(40)" xlink:href="#wd_default_0m1"/><use transform="translate(60)" xlink:href="#wd_default_111"/><use transform="translate(80)" xlink:href="#wd_default_1m0"/><use transform="translate(100)" xlink:href="#wd_default_000"/><use transform="translate(120)" xlink:href="#wd_default_0m1"/><use transform="translate(140)" xlink:href="#wd_default_111"/><use transform="translate(160)" xlink:href="#wd_default_1m0"/><use transform="translate(180)" xlink:href="#wd_default_000"/><use transform="translate(200)" xlink:href="#wd_default_0m1"/><use transform="translate(220)" xlink:href="#wd_default_111"/><use transform="translate(240)" xlink:href="#wd_default_1m0"/><use transform="translate(260)" xlink:href="#wd_default_000"/><use transform="translate(280)" xlink:href="#wd_default_0m1"/><use transform="translate(300)" xlink:href="#wd_default_111"/><use transform="translate(320)" xlink:href="#wd_default_1m0"/><use transform="translate(340)" xlink:href="#wd_default_000"/><use transform="translate(360)" xlink:href="#wd_default_0m1"/><use transform="translate(380)" xlink:href="#wd_default_111"/><use transform="translate(400)" xlink:href="#wd_default_1m0"/><use transform="translate(420)" xlink:href="#wd_default_000"/><use transform="translate(440)" xlink:href="#wd_default_0m1"/><use transform="translate(460)" xlink:href="#wd_default_111"/><use transform="translate(480)" xlink:href="#wd_default_1m0"/><use transform="translate(500)" xlink:href="#wd_default_000"/><use transform="translate(520)" xlink:href="#wd_default_0m1"/><use transform="translate(540)" xlink:href="#wd_default_111"/><use transform="translate(560)" xlink:href="#wd_default_1m0"/><use transform="translate(580)" xlink:href="#wd_default_000"/><use transform="translate(600)" xlink:href="#wd_default_0m1"/><use transform="translate(620)" xlink:href="#wd_default_111"/></g></g><g transform="translate(0,275)" id="wavelane_9_0"><text x="-10" y="15" class="info lane_label" text-anchor="end" xml:space="preserve"><tspan/></text><g id="wavelane_draw_9_0" clip-path="url(#D0L9_FL_CP)"/></g><g transform="translate(0,305)" id="wavelane_10_0"><text x="-10" y="15" class="info lane_label" text-anchor="end" xml:space="preserve"><tspan/></text><g transform="translate(340)" id="wavelane_draw_10_0" clip-path="url(#D0L10_FL_CP)"><use xlink:href="#wd_default_L10_zzz" clip-path="url(#D0_L10_FB_CP)"/></g></g><g transform="translate(0,335)" id="wavelane_11_0"><text x="-10" y="15" class="info lane_label" text-anchor="end" xml:space="preserve"><tspan/></text><g id="wavelane_draw_11_0" clip-path="url(#D0L11_FL_CP)"/></g><g transform="translate(0,245)" id="wavelane_12_0"><text x="-10" y="15" class="info lane_label" text-anchor="end" xml:space="preserve"><tspan/></text><g transform="translate(16)" id="wavelane_draw_12_0" clip-path="url(#D0L12_FL_CP)"><use xlink:href="#wd_default_L12_000" clip-path="url(#D0_L12_FB_CP)"/><use transform="translate(20)" xlink:href="#wd_default_L12_000"/><use transform="translate(40)" xlink:href="#wd_default_L12_0m1"/><use transform="translate(60)" xlink:href="#wd_default_L12_111"/><use transform="translate(80)" xlink:href="#wd_default_L12_1m0"/><use transform="translate(100)" xlink:href="#wd_default_L12_000"/><use transform="translate(120)" xlink:href="#wd_default_L12_0m1"/><use transform="translate(140)" xlink:href="#wd_default_L12_111"/><use transform="translate(160)" xlink:href="#wd_default_L12_1m0"/><use transform="translate(180)" xlink:href="#wd_default_L12_000"/><use transform="translate(200)" xlink:href="#wd_default_L12_0m1"/><use transform="translate(220)" xlink:href="#wd_default_L12_111"/><use transform="translate(240)" xlink:href="#wd_default_L12_1m0"/><use transform="translate(260)" xlink:href="#wd_default_L12_000"/><use transform="translate(280)" xlink:href="#wd_default_L12_0m1"/><use transform="translate(300)" xlink:href="#wd_default_L12_111"/><use transform="translate(320)" xlink:href="#wd_default_L12_1m0"/><use transform="translate(340)" xlink:href="#wd_default_L12_000"/><use transform="translate(360)" xlink:href="#wd_default_L12_0m1"/><use transform="translate(380)" xlink:href="#wd_default_L12_111"/><use transform="translate(400)" xlink:href="#wd_default_L12_1m0"/><use transform="translate(420)" xlink:href="#wd_default_L12_000"/><use transform="translate(440)" xlink:href="#wd_default_L12_0m1"/><use transform="translate(460)" xlink:href="#wd_default_L12_111"/><use transform="translate(480)" xlink:href="#wd_default_L12_1m0"/><use transform="translate(500)" xlink:href="#wd_default_L12_000"/><use transform="translate(520)" xlink:href="#wd_default_L12_0m1"/><use transform="translate(540)" xlink:href="#wd_default_L12_111"/><use transform="translate(560)" xlink:href="#wd_default_L12_1m0"/><use transform="translate(580)" xlink:href="#wd_default_L12_000"/><use transform="translate(600)" xlink:href="#wd_default_L12_0m1"/><use transform="translate(620)" xlink:href="#wd_default_L12_111"/></g></g><g transform="translate(0,185)" id="wavelane_13_0"><text x="-10" y="15" class="info lane_label" text-anchor="end" xml:space="preserve"><tspan/></text><g id="wavelane_draw_13_0" clip-path="url(#D0L13_FL_CP)"/></g><g transform="translate(0,185)" id="wavelane_14_0"><text x="-10" y="15" class="info lane_label" text-anchor="end" xml:space="preserve"><tspan/></text><g id="wavelane_draw_14_0" clip-path="url(#D0L14_FL_CP)"/></g><g transform="translate(0,185)" id="wavelane_15_0"><text x="-10" y="15" class="info lane_label" text-anchor="end" xml:space="preserve"><tspan/></text><g id="wavelane_draw_15_0" clip-path="url(#D0L15_FL_CP)"/></g><g transform="translate(0,245)" id="wavelane_16_0"><text x="-10" y="15" class="info lane_label" text-anchor="end" xml:space="preserve"><tspan/></text><g id="wavelane_draw_16_0" clip-path="url(#D0L16_FL_CP)"/></g><g transform="translate(0,245)" id="wavelane_17_0"><text x="-10" y="15" class="info lane_label" text-anchor="end" xml:space="preserve"><tspan/></text><g id="wavelane_draw_17_0" clip-path="url(#D0L17_FL_CP)"/></g><g transform="translate(0,245)" id="wavelane_18_0"><text x="-10" y="15" class="info lane_label" text-anchor="end" xml:space="preserve"><tspan/></text><g id="wavelane_draw_18_0" clip-path="url(#D0L18_FL_CP)"/></g><g transform="translate(0,245)" id="wavelane_19_0"><text x="-10" y="15" class="info lane_label" text-anchor="end" xml:space="preserve"><tspan/></text><g id="wavelane_draw_19_0" clip-path="url(#D0L19_FL_CP)"/></g><g transform="translate(0,125)" id="wavelane_20_0"><text x="-10" y="15" class="info lane_label" text-anchor="end" xml:space="preserve"><tspan/></text><g id="wavelane_draw_20_0" clip-path="url(#D0L20_FL_CP)"/></g><g transform="translate(0,305)" id="wavelane_21_0"><text x="-10" y="15" class="info lane_label" text-anchor="end" xml:space="preserve"><tspan/></text><g id="wavelane_draw_21_0" clip-path="url(#D0L21_FL_CP)"/></g><g id="wavearcs_0"/><g id="wavegaps_0"><g transform="translate(0,65)" id="wavegap_2_0"/><g transform="translate(0,125)" id="wavegap_4_0"/><g transform="translate(0,185)" id="wavegap_6_0"/><g transform="translate(0,245)" id="wavegap_8_0"/><g transform="translate(0,305)" id="wavegap_10_0"/><g transform="translate(0,245)" id="wavegap_12_0"/></g><g id="g_pwtl_0" clip-path="url(#D0_PWTL_CP)"><g transform="translate(0,45)"><rect x="0" y="-7.152778148651123" width="163.3641357421875" height="12.222223281860352" class="arc_label_bg_white"/><text class="arc_label_default arc_label " style="text-anchor:start;"><tspan>Lower 8 bits of the 16-Bit MCount</tspan></text></g><g transform="translate(0,205)"><path style="" class="pw_default blueVoltageLine" d="m 0 -4 L 720 -4 M 0 -16 L 720 -16"/></g><g transform="translate(0,201)"><rect x="-1.1111111640930176" y="-5.711805820465088" width="11.34752082824707" height="11.614583969116211" class="arc_label_bg_white"/><text class="arc_label_default arc_label vAnnoStyle" style=""><tspan>V</tspan><tspan baseline-shift="sub" font-size=".7em">IL</tspan></text></g><g transform="translate(0,189)"><rect x="-1.1111111640930176" y="-5.711805820465088" width="12.45863151550293" height="11.614583969116211" class="arc_label_bg_white"/><text class="arc_label_default arc_label vAnnoStyle" style=""><tspan>V</tspan><tspan baseline-shift="sub" font-size=".7em">IH</tspan></text></g><g transform="translate(0,265)"><path style="stroke:black" class="pw_default blueVoltageLine" d="m 0 2 L 720 2"/></g><g transform="translate(0,265)"><path style="stroke:red" class="pw_default blueVoltageLine" d="M 0 -22 L 720 -22"/></g><g transform="translate(0,273.6)"><rect x="-1.1111111640930176" y="-5.711805820465088" width="14.63792610168457" height="11.614583969116211" class="arc_label_bg_white"/><text class="arc_label_default arc_label vAnnoStyle" style=""><tspan>V</tspan><tspan baseline-shift="sub" font-size=".7em">SS</tspan></text></g><g transform="translate(0,236.4)"><rect x="-1.1111111640930176" y="-5.711805820465088" width="14.946916580200195" height="11.614583969116211" class="arc_label_bg_white"/><text class="arc_label_default arc_label vAnnoStyle" style=""><tspan>V</tspan><tspan baseline-shift="sub" font-size=".7em">DD</tspan></text></g><g transform="translate(66,135)"><rect x="-11.605903625488281" y="-7.152778148651123" width="23.486753463745117" height="12.222223281860352" class="arc_label_bg_white"/><text class="arc_label_default arc_label " style=""><tspan>Start</tspan></text></g><g transform="translate(426,135)"><rect x="-12.41319465637207" y="-7.152778148651123" width="25.265300750732422" height="12.222223281860352" class="arc_label_bg_white"/><text class="arc_label_default arc_label " style=""><tspan>ACK</tspan></text></g><g transform="translate(520,315)"><rect x="-138.42015075683594" y="-6.302083492279053" width="138.96864318847656" height="11.111111640930176" class="arc_label_bg_transparent"/><text class="arc_label_default arc_label " style="font-size:10;text-anchor:end"><tspan>Clock with added internal delay</tspan></text></g></g></g><g id="groups_0"><g><path id="group_0_0" d="m 35.5,80.16666793823242 c -3,0 -5,2 -5,5 l 0,44 c 0,3 2,5 5,5" class="group_path"/><g transform="translate(25,106.66666793823242)"><g transform="rotate(270)"><text text-anchor="middle" class="info group_label" xml:space="preserve"><tspan>Counter</tspan></text></g></g></g></g></g>
<metadata id="WaveJS">
<!--// WaveJS rendered using WaveDrom version 24.01.0
{
  config: {fit2pane: 1, hbounds: [0,12.5],
           customStyle: 
           '.blueVoltageLine{stroke:#0000ff;stroke-width:0.3px;stroke-dasharray:2}' +
           '.vAnnoStyle{font-size:8px;text-align:center;opacity:0.7;text-anchor:start}'
          
          },
  head: {text: 'Arbitrary Text Labels using the <i>tl</i> Feature'},
  signal: [
    {},
	['Counter',
     { wave: ['tl', {coords: [0,0.5], text: 'Lower 8 bits of the 16-Bit MCount', tlStyle: 'text-anchor:start;' } ] },
	 { name: 'MCount', wave: '2222222222222', data: ['FE', 'FF', '00', '01', '02', '03', '04', '05', '06', '07', '08', '09', '0A'] }
	],
    {},
    {name: 'UART Example', 'wave': '104.......1u', 'data': ['data'], id: 'uart'},
    {},
    {name: 'CLK1', wave: '0101010101010101', id: 'clk1'},
    {},
    {name: 'CLK2', wave: '0101010101010101', node:'..M', id: 'clk2'},
    {},
    {wave: '<z>', phase: -8.5, skinStyle: 'stroke-dasharray:1,3', id: 'annoz'},
    {},
    {wave: '0101010101010101', phase:-.4, skinStyle: 'stroke-dasharray:1,3', overlayOnLane: 'clk2'},
    {wave: ['pw', { d: ['m',0,0.2, 'L',18,0.2, 'M',0,0.8, 'L',18,0.8], pwClass: 'blueVoltageLine', }, ], overlayOnLane: 'clk1' },
	{wave: ['tl', { coords: [0,0.2], text: 'V<sub>IL</sub>', tlClass: 'vAnnoStyle' } ],	overlayOnLane: 'clk1' },
	{wave: ['tl', { coords: [0,0.8], text: 'V<sub>IH</sub>', tlClass: 'vAnnoStyle' } ], overlayOnLane: 'clk1' },
    {wave: ['pw', { d: ['m',0,-0.1, 'L',18,-0.1], pwClass: 'blueVoltageLine', pwStyle: 'stroke:black' }, ],	overlayOnLane: 'clk2' },
	{wave: ['pw', { d: ['M',0,1.1, 'L',18,1.1], pwClass: 'blueVoltageLine', pwStyle: 'stroke:red' }, ], overlayOnLane: 'clk2' },
	{wave: ['tl', { coords: [0,-0.43], text: 'V<sub>SS</sub>', tlClass: 'vAnnoStyle' } ], overlayOnLane: 'clk2' },
	{wave: ['tl', { coords: [0,1.43], text: 'V<sub>DD</sub>', tlClass: 'vAnnoStyle' } ], overlayOnLane: 'clk2' },    
    {overlayOnLane: 'uart', wave: [
      'tl', { coords: [1.65,.5], text: 'Start'},
      'tl', { coords: [10.65,.5], text: 'ACK'},
     ]},  
    {wave: ['tl', { coords: [13,0.5], avoidBBox: true,
     text: 'Clock with added internal delay', tlStyle: 'font-size:10;text-anchor:end' } ], overlayOnLane: 'annoz' },

   ],
}		
-->
</metadata></svg>